<?xml version="1.0" encoding="utf-8"?>
<!-- Generator: Adobe Illustrator 27.3.1, SVG Export Plug-In . SVG Version: 6.00 Build 0)  -->
<svg version="1.1" xmlns="http://www.w3.org/2000/svg" xmlns:xlink="http://www.w3.org/1999/xlink" x="0px" y="0px"
	 viewBox="0 0 89.29 89.29" style="enable-background:new 0 0 89.29 89.29;" xml:space="preserve">
<style type="text/css">
	.st0{fill:#0067B1;}
	.st1{fill:#FFDC00;}
</style>
<g id="terc">
	<g>
		<path d="M44.65,0C19.99,0,0,19.99,0,44.65C0,69.3,19.99,89.29,44.65,89.29c24.66,0,44.65-19.99,44.65-44.65
			C89.29,19.99,69.3,0,44.65,0z M44.65,74.41c-16.44,0-29.76-13.33-29.76-29.76s13.33-29.76,29.76-29.76s29.76,13.33,29.76,29.76
			S61.08,74.41,44.65,74.41z"/>
		<ellipse transform="matrix(0.7071 -0.7071 0.7071 0.7071 -18.4928 44.6457)" cx="44.65" cy="44.65" rx="14.88" ry="14.88"/>
	</g>
	<path class="st0" d="M44.65,14.88c-16.44,0-29.76,13.33-29.76,29.76s13.33,29.76,29.76,29.76s29.76-13.33,29.76-29.76
		S61.08,14.88,44.65,14.88z M44.65,59.53c-8.22,0-14.88-6.66-14.88-14.88c0-8.22,6.66-14.88,14.88-14.88
		c8.22,0,14.88,6.66,14.88,14.88C59.53,52.86,52.86,59.53,44.65,59.53z"/>
</g>
<g id="typo">
	<g>
		<g>
			<polygon class="st1" points="44.8,2.33 45.57,6.77 49.99,7.65 45.55,8.42 44.66,12.84 43.9,8.4 39.48,7.51 43.92,6.75 			"/>
		</g>
		<g>
			<path class="st1" d="M12.64,67.86l1.35,0.01c0.01,0.71,0.23,1.33,0.64,1.83c0.27,0.32,0.52,0.4,0.71,0.25l0.01-0.01
				c0.18-0.15,0.16-0.37-0.19-1.07c-0.55-1.09-0.88-2.02,0.01-2.75l0.01-0.01c0.8-0.67,1.91-0.51,2.77,0.53
				c0.61,0.73,0.89,1.47,0.9,2.25l-1.34,0.1c-0.05-0.62-0.26-1.18-0.58-1.56c-0.24-0.29-0.48-0.33-0.63-0.2l-0.01,0.01
				c-0.2,0.16-0.16,0.38,0.2,1.09c0.61,1.17,0.8,2.05-0.01,2.72l-0.01,0.01c-0.88,0.73-1.98,0.47-2.85-0.58
				C12.96,69.71,12.6,68.78,12.64,67.86z"/>
			<path class="st1" d="M22.56,71.48l3.65,2.65l-0.78,1.07l-2.41-1.74l-0.5,0.69l2.18,1.58l-0.72,0.99l-2.18-1.58l-0.52,0.72
				l2.44,1.77l-0.78,1.07l-3.68-2.67L22.56,71.48z"/>
			<path class="st1" d="M28.77,78.74l0-0.02c0.59-1.52,2.22-2.27,3.8-1.66c1.07,0.41,1.58,1.12,1.8,1.94l-1.41,0.42
				c-0.16-0.49-0.41-0.86-0.91-1.05c-0.73-0.28-1.48,0.14-1.78,0.9l0,0.01c-0.3,0.78-0.02,1.59,0.71,1.87
				c0.54,0.21,0.96,0.08,1.42-0.18l0.79,1.19c-0.75,0.49-1.61,0.73-2.77,0.29C28.94,81.9,28.17,80.3,28.77,78.74z"/>
			<path class="st1" d="M38.44,82.07l0.29-3.13l1.57,0.15l-0.29,3.1c-0.08,0.8,0.29,1.22,0.92,1.28s1.06-0.27,1.14-1.05l0.29-3.14
				l1.57,0.15l-0.29,3.09c-0.17,1.8-1.27,2.49-2.86,2.34C39.2,84.71,38.28,83.81,38.44,82.07z"/>
			<path class="st1" d="M48.31,79.23l2.61-0.45c0.84-0.15,1.46-0.03,1.9,0.29c0.38,0.26,0.62,0.65,0.71,1.2l0,0.02
				c0.15,0.84-0.2,1.48-0.84,1.89l1.65,1.69l-1.76,0.31l-1.4-1.48l-0.67,0.12l0.29,1.67l-1.53,0.27L48.31,79.23z M51.31,81.43
				c0.52-0.09,0.78-0.39,0.71-0.8l0-0.02c-0.08-0.43-0.43-0.6-0.94-0.51l-1,0.17l0.23,1.32L51.31,81.43z"/>
			<path class="st1" d="M57.35,76.95l1.44-0.6l2.17,5.16l-1.44,0.6L57.35,76.95z"/>
			<path class="st1" d="M64.77,74.58l-1.37,0.97l-0.78-1.11l4.01-2.83l0.78,1.11l-1.37,0.97l2.44,3.46l-1.27,0.89L64.77,74.58z"/>
			<path class="st1" d="M73.41,69.78l-4.05-0.62l1.14-1.36l2.3,0.43l-0.82-2.2l1.12-1.33l1.3,3.87l1.63,1.36l-1,1.2L73.41,69.78z"/>
		</g>
		<polygon class="st1" points="19.27,12.56 20.03,17 24.45,17.88 20.01,18.65 19.13,23.07 18.36,18.63 13.94,17.74 18.38,16.98 		
			"/>
		<polygon class="st1" points="70.36,12.56 71.13,17 75.55,17.88 71.11,18.65 70.22,23.07 69.46,18.63 65.04,17.74 69.48,16.98 		
			"/>
		<path class="st1" d="M54.18,41.66c-2.37-0.48-2.97-0.87-2.96-1.48v-0.06c0.01-0.54,0.53-0.92,1.65-0.91
			c2.08,0.03,4.6,0.73,6.7,2.3l3.72-5.01c-2.57-2.08-5.76-3.15-10.08-3.21c-4.4-0.06-7.37,1.58-8.74,4.05l0.05-3.75l-17.24-0.23
			l-0.08,5.83l8.33,0.11l-4.99,3.84l0.95,3.35l3.17,0.04c1.99,0.03,2.94,0.74,2.92,1.83l0,0.06c-0.01,1.06-0.92,1.78-2.59,1.76
			c-1.86-0.02-3.61-0.91-5.25-2.51l-4.51,4.52c2.43,2.56,5.68,4.11,10.3,4.17c3.13,0.04,5.97-0.99,7.67-2.96
			c2.75,2.02,6.42,3.09,10.47,3.14c6.02,0.08,9.94-2.75,10-7.46l0-0.06C63.72,44.51,59.9,42.8,54.18,41.66z M56.02,49.7
			c-0.01,0.61-0.59,0.95-1.94,0.94c-2.63-0.04-5.4-0.84-7.81-2.73l-1.5,1.74c0.02-0.22,0.04-0.44,0.05-0.67l0-0.06
			c0.05-3.52-2.11-5.51-5.46-6.45l4.39-3.21c-0.1,0.47-0.16,0.96-0.16,1.47l0,0.06c-0.06,4.74,4.34,6.24,9.36,7.33
			c2.4,0.51,3.1,0.87,3.09,1.52L56.02,49.7z"/>
	</g>
</g>
</svg>
